<svg xmlns="http://www.w3.org/2000/svg" version="1.1" xmlns:xlink="http://www.w3.org/1999/xlink" xmlns:svgjs="http://svgjs.dev/svgjs" width="2000" height="2000" viewBox="0 0 2000 2000"><g transform="matrix(1,0,0,1,0,0)"><svg viewBox="0 0 280 280" data-background-color="#ffffff" preserveAspectRatio="xMidYMid meet" height="2000" width="2000" xmlns="http://www.w3.org/2000/svg" xmlns:xlink="http://www.w3.org/1999/xlink"><g id="tight-bounds" transform="matrix(1,0,0,1,0,0)"><svg viewBox="0 0 280 280" height="280" width="280"><g><svg viewBox="0 0 280 280" height="280" width="280"><g><svg viewBox="0 0 280 280" height="280" width="280"><g id="textblocktransform"><svg viewBox="0 0 280 280" height="280" width="280" id="textblock"><g><svg viewBox="0 0 280 280" height="280" width="280"><g transform="matrix(1,0,0,1,115.1112703255343,97.10218860801612)"><svg viewBox="0 0 49.777459348931394 85.79562278396777" height="85.79562278396777" width="49.777459348931394"><g id="icon-0"><svg xmlns="http://www.w3.org/2000/svg" xmlns:xlink="http://www.w3.org/1999/xlink" version="1.1" x="0" y="0" viewBox="21.679106830508623 1 56.85827385947761 98" enable-background="new 0 0 100 100" xml:space="preserve" height="85.79562278396777" width="49.777459348931394" class="icon-xg-0" data-fill-palette-color="accent" id="xg-0"><g fill="#514b4c" data-fill-palette-color="accent"><path fill-rule="evenodd" clip-rule="evenodd" d="M30.545 28.822c-1.165 7.217 0.33 14.85 6.5 19.041C30.758 19.81 45.756 8.664 59.646 1c-16.18 23.046 16.896 23.644 18.777 50.13C80.028 73.71 64.507 91.317 46.639 99c0.206-22.825-22.55-25.933-24.838-44.603C20.905 47.094 25.062 33.766 30.545 28.822z" fill="#514b4c" data-fill-palette-color="accent"></path></g></svg></g></svg></g><g id="text-0"><path d="M27.41 84.952v0c2.39 0.841 3.927 2.402 4.612 4.682 0.688 2.289 0.464 5.05-0.674 8.285v0l-3.306 9.394-26.84-9.444 2.884-8.196c2.316-6.582 5.644-9.11 9.982-7.584v0c1.617 0.569 2.8 1.524 3.549 2.865 0.751 1.334 1.004 2.881 0.759 4.641v0c1.021-2.126 2.333-3.589 3.936-4.39 1.609-0.798 3.309-0.883 5.098-0.253zM13.202 86.083v0c-1.425-0.501-2.613-0.359-3.565 0.426-0.954 0.792-1.783 2.188-2.486 4.189v0l-1.562 4.438 8.273 2.911 1.575-4.477c1.399-3.975 0.654-6.471-2.235-7.487zM25.726 88.669v0c-1.515-0.533-2.876-0.348-4.085 0.556-1.215 0.901-2.233 2.518-3.053 4.85v0l-1.764 5.014 9.509 3.346 1.862-5.292c0.816-2.32 1.017-4.167 0.603-5.54-0.418-1.383-1.443-2.36-3.072-2.934z" fill="#c3b1b1" data-fill-palette-color="primary"></path><path d="M102.891 26.022v0c0.334-0.149 0.694-0.366 1.079-0.65v0l0.966 2.162c-0.781 0.594-1.629 1.096-2.543 1.505v0c-1.28 0.573-2.365 0.653-3.254 0.242-0.883-0.414-1.687-1.323-2.412-2.728v0l-0.111 0.05c-0.14 1.926-0.626 3.486-1.457 4.682-0.827 1.187-2.076 2.153-3.745 2.9v0c-2.028 0.907-3.803 1.037-5.325 0.39-1.519-0.641-2.71-1.927-3.574-3.856v0c-2.003-4.477-0.107-8.053 5.688-10.728v0l4.512-2.107-0.507-1.132c-0.753-1.682-1.635-2.742-2.647-3.18-1.009-0.432-2.259-0.314-3.75 0.353v0c-1.515 0.678-2.486 1.435-2.913 2.272-0.427 0.837-0.449 1.849-0.067 3.036v0l-3.772 1.298c-1.083-4.013 0.793-7.101 5.63-9.265v0c2.566-1.148 4.764-1.412 6.593-0.79 1.829 0.621 3.252 2.067 4.267 4.336v0l4.013 8.97c0.459 1.027 0.939 1.743 1.44 2.15 0.504 0.398 1.134 0.428 1.889 0.09zM91.112 31.147v0c1.231-0.551 2.191-1.333 2.88-2.346 0.687-1.02 1.072-2.142 1.155-3.367 0.086-1.218-0.108-2.356-0.581-3.413v0l-0.764-1.707-3.631 1.713c-1.498 0.7-2.576 1.383-3.236 2.049-0.659 0.666-1.068 1.413-1.224 2.24-0.16 0.836-0.005 1.78 0.465 2.831v0c0.473 1.057 1.137 1.777 1.991 2.16 0.863 0.386 1.845 0.332 2.945-0.16z" fill="#c3b1b1" data-fill-palette-color="primary"></path><path d="M192.354 30.99l-0.104-0.041c-1.188 1.117-2.433 1.774-3.735 1.971-1.305 0.203-2.748-0.009-4.329-0.638v0c-2.638-1.048-4.216-2.729-4.732-5.041-0.526-2.309-0.062-5.292 1.391-8.949v0c2.94-7.398 6.972-10.078 12.096-8.042v0c1.58 0.628 2.791 1.433 3.633 2.417 0.848 0.986 1.334 2.247 1.459 3.784v0l0.038 0.015 1.141-2.981 3.261-8.206 3.532 1.403-9.821 24.714c-0.878 2.21-1.42 3.682-1.624 4.418v0l-3.372-1.34c0.027-0.215 0.173-0.711 0.439-1.488 0.262-0.77 0.505-1.436 0.727-1.996zM184.539 19.617v0c-1.153 2.902-1.604 5.173-1.351 6.812 0.249 1.63 1.252 2.794 3.008 3.492v0c1.908 0.758 3.592 0.629 5.053-0.387 1.458-1.01 2.785-3.019 3.981-6.029v0c1.116-2.808 1.488-5.029 1.117-6.664-0.374-1.628-1.533-2.829-3.478-3.602v0c-1.763-0.701-3.305-0.533-4.628 0.501-1.322 1.035-2.556 2.994-3.702 5.877z" fill="#c3b1b1" data-fill-palette-color="primary"></path><path d="M263.376 103.992v0c-3.568 1.423-6.623 1.69-9.166 0.802-2.54-0.883-4.428-2.872-5.663-5.969v0c-1.207-3.027-1.177-5.73 0.09-8.11 1.264-2.371 3.658-4.26 7.182-5.666v0c3.643-1.453 6.713-1.722 9.208-0.807 2.491 0.924 4.342 2.903 5.552 5.936v0c1.27 3.184 1.309 5.915 0.117 8.192-1.198 2.28-3.638 4.154-7.32 5.622zM261.9 100.293v0c2.806-1.12 4.722-2.405 5.748-3.858 1.028-1.446 1.144-3.166 0.348-5.161v0c-0.808-2.026-2.104-3.227-3.888-3.602-1.786-0.382-4.057-0.023-6.813 1.077v0c-2.744 1.094-4.641 2.399-5.693 3.912-1.054 1.507-1.206 3.202-0.456 5.084v0c0.828 2.077 2.126 3.299 3.892 3.666 1.768 0.374 4.056 0.001 6.862-1.118z" fill="#c3b1b1" data-fill-palette-color="primary"></path><path d="M21.711 199.741v0c-2.619 0.945-5.018 0.684-7.198-0.784-2.171-1.464-3.897-3.97-5.178-7.519v0l-3.719-10.304 29.439-10.628 3.247 8.994c2.604 7.213 1.526 11.679-3.234 13.398v0c-1.771 0.64-3.442 0.652-5.01 0.037-1.578-0.619-2.873-1.764-3.888-3.437v0c0.615 2.522 0.516 4.683-0.296 6.482-0.813 1.799-2.2 3.052-4.163 3.761zM33.041 188.898v0c1.555-0.561 2.465-1.513 2.729-2.855 0.267-1.335 0.004-3.102-0.79-5.3v0l-1.757-4.865-9.08 3.278 1.774 4.913c1.576 4.365 3.95 5.975 7.124 4.829zM20.556 195.404v0c1.663-0.6 2.697-1.708 3.1-3.323 0.406-1.609 0.147-3.694-0.778-6.256v0l-1.985-5.496-10.437 3.768 2.094 5.802c0.92 2.549 2.036 4.264 3.348 5.144 1.321 0.885 2.873 1.005 4.658 0.361z" fill="#c3b1b1" data-fill-palette-color="primary"></path><path d="M96.513 271.949v0c0.365 0.163 0.802 0.298 1.31 0.405v0l-1.054 2.367c-1.061-0.198-2.093-0.521-3.096-0.967v0c-1.411-0.628-2.273-1.457-2.586-2.486-0.313-1.029-0.16-2.355 0.459-3.978v0l-0.121-0.054c-1.686 1.304-3.32 2.052-4.904 2.244-1.584 0.192-3.294-0.121-5.132-0.94v0c-2.228-0.992-3.637-2.35-4.226-4.073-0.592-1.717-0.416-3.637 0.529-5.761v0c2.194-4.926 6.516-5.998 12.967-3.214v0l5.041 2.145 0.558-1.253c0.824-1.85 1.042-3.348 0.654-4.492-0.388-1.144-1.402-2.081-3.042-2.812v0c-1.671-0.744-3.004-0.982-3.998-0.713-1.001 0.266-1.848 0.986-2.542 2.161v0l-3.826-2.126c2.488-3.839 6.396-4.571 11.725-2.199v0c2.822 1.257 4.651 2.861 5.488 4.814 0.827 1.956 0.684 4.183-0.429 6.683v0l-4.399 9.878c-0.504 1.133-0.735 2.05-0.691 2.751 0.041 0.708 0.479 1.248 1.315 1.62zM83.658 266.068v0c1.362 0.606 2.707 0.816 4.036 0.63 1.335-0.184 2.536-0.691 3.603-1.522 1.067-0.83 1.858-1.824 2.373-2.981v0l0.839-1.884-4.066-1.711c-1.682-0.719-3.035-1.103-4.059-1.151-1.03-0.051-1.943 0.166-2.737 0.65-0.8 0.482-1.458 1.301-1.974 2.458v0c-0.518 1.163-0.622 2.237-0.311 3.221 0.317 0.987 1.082 1.75 2.296 2.29z" fill="#c3b1b1" data-fill-palette-color="primary"></path><path d="M198.403 264.163l-0.114 0.044c-0.118 1.784-0.626 3.248-1.525 4.392-0.901 1.137-2.223 2.046-3.965 2.726v0c-2.909 1.136-5.439 0.971-7.589-0.494-2.15-1.466-4.014-4.218-5.592-8.257v0c-3.183-8.153-1.951-13.333 3.697-15.538v0c1.742-0.68 3.32-0.94 4.736-0.78 1.422 0.158 2.759 0.807 4.011 1.946v0l0.047-0.018-1.322-3.247-3.533-9.05 3.89-1.519 10.641 27.253c0.951 2.436 1.622 4.025 2.013 4.766v0l-3.72 1.453c-0.141-0.192-0.397-0.7-0.768-1.522-0.363-0.818-0.665-1.537-0.907-2.155zM183.593 260.88v0c1.249 3.2 2.588 5.361 4.015 6.483 1.424 1.131 3.101 1.32 5.032 0.566v0c2.108-0.823 3.37-2.192 3.786-4.107 0.41-1.913-0.032-4.526-1.326-7.838v0c-1.21-3.099-2.577-5.165-4.1-6.2-1.521-1.028-3.355-1.123-5.501-0.285v0c-1.944 0.759-3.058 2.049-3.344 3.869-0.286 1.821 0.194 4.324 1.438 7.512z" fill="#c3b1b1" data-fill-palette-color="primary"></path><path d="M263.315 176.352v0c3.901 1.612 6.513 3.743 7.837 6.394 1.326 2.644 1.288 5.664-0.115 9.057v0c-1.369 3.312-3.463 5.419-6.284 6.32-2.815 0.904-6.15 0.559-10.007-1.034v0c-3.988-1.648-6.614-3.792-7.876-6.432-1.265-2.634-1.211-5.61 0.16-8.928v0c1.441-3.487 3.506-5.673 6.195-6.556 2.695-0.88 6.058-0.487 10.09 1.179zM261.638 180.409v0c-3.074-1.27-5.571-1.73-7.489-1.38-1.921 0.357-3.334 1.628-4.237 3.814v0c-0.916 2.216-0.816 4.156 0.3 5.819 1.12 1.672 3.188 3.132 6.207 4.379v0c2.999 1.239 5.495 1.666 7.487 1.279 1.99-0.38 3.41-1.6 4.261-3.659v0c0.939-2.273 0.854-4.232-0.254-5.878-1.115-1.648-3.206-3.106-6.275-4.374z" fill="#c3b1b1" data-fill-palette-color="primary"></path><path d="M0 140.041c0-6.603 5.353-11.956 11.956-11.956 6.603 0 11.956 5.353 11.956 11.956 0 6.603-5.353 11.956-11.956 11.956-6.603 0-11.956-5.353-11.956-11.956z" fill="#c3b1b1" data-fill-palette-color="primary"></path><path d="M256.088 140.041c0-6.603 5.353-11.956 11.956-11.956 6.603 0 11.956 5.353 11.956 11.956 0 6.603-5.353 11.956-11.956 11.956-6.603 0-11.956-5.353-11.956-11.956z" fill="#c3b1b1" data-fill-palette-color="primary"></path></g><g id="text-1"></g></svg></g></svg></g></svg></g></svg></g><defs></defs></svg><rect width="280" height="280" fill="none" stroke="none" visibility="hidden"></rect></g></svg></g></svg>